<svg width="178" height="24" viewBox="0 0 178 24" fill="none" xmlns="http://www.w3.org/2000/svg">
<path d="M85.7548 7.2376C83.9741 6.75718 82.4388 6.34465 82.4388 5.19582C82.4388 3.98956 83.713 3.54047 84.8096 3.54047C85.9897 3.54047 87.0864 3.92689 87.7025 4.76762L91.5772 4.14621C91.5772 4.14621 90.0785 0 84.8044 0C81.008 0 78.3605 2.16188 78.3605 5.25849C78.3605 8.87729 81.6451 9.78068 84.2874 10.5065C86.0785 10.9974 87.6242 11.4256 87.6242 12.5483C87.6242 14.0574 85.9532 14.3551 84.9192 14.3551C83.4049 14.3551 82.0263 13.7389 81.4049 12.6371L77.4258 13.2689C77.4258 13.2689 78.7052 17.8747 84.8461 17.8747C88.9506 17.8747 91.7078 15.7493 91.7078 12.5849C91.6973 8.84595 88.4023 7.953 85.7548 7.2376Z" fill="#0050FF"/>
<path d="M117.697 3.28461V0.496094H113.838V17.3629H117.702V8.59009C117.702 7.04962 118.548 5.60314 119.948 4.9504C120.82 4.54309 122.256 4.19322 124.287 4.4021L122.762 0.496094C120.736 0.496094 118.773 1.25327 117.697 3.28461Z" fill="#0050FF"/>
<path d="M8.89817 0.0626221C3.90601 0.0626221 0 3.95818 0 8.92946C0 13.9007 3.90601 17.7963 8.89817 17.7963C13.8851 17.7963 17.7963 13.9007 17.7963 8.92946C17.7963 3.95818 13.8851 0.0626221 8.89817 0.0626221ZM13.9321 8.92946C13.9321 11.8381 11.765 14.0313 8.89817 14.0313C6.02611 14.0313 3.86423 11.8381 3.86423 8.92946C3.86423 6.02085 6.02611 3.82764 8.89817 3.82764C11.7702 3.82764 13.9321 6.02085 13.9321 8.92946Z" fill="#0050FF"/>
<path d="M29.739 0.0626221C27.3683 0.0626221 25.4205 0.939907 24.0732 2.61092V0.496042H20.209V24H24.0732V15.2793C25.4257 16.9295 27.3787 17.7963 29.739 17.7963C34.4492 17.7963 38.1411 13.9007 38.1411 8.92946C38.1359 4.04173 34.3709 0.0626221 29.739 0.0626221ZM34.2769 8.92946C34.2769 11.9269 32.1307 14.0992 29.175 14.0992C26.2194 14.0992 24.0732 11.9269 24.0732 8.92946C24.0732 5.9373 26.2194 3.75975 29.175 3.75975C32.1307 3.75975 34.2769 5.93207 34.2769 8.92946Z" fill="#0050FF"/>
<path d="M68.7321 0.0626221C66.5545 0.0626221 64.8365 0.835468 63.7295 2.30805V0.496043H59.8652V17.3629H63.7295V8.33416C63.7295 5.38899 65.2125 3.69709 67.8026 3.69709C70.0741 3.69709 71.3796 5.04957 71.3796 7.40466V17.3629H75.2438V7.03912C75.2386 2.80414 72.6851 0.0626221 68.7321 0.0626221Z" fill="#0050FF"/>
<path d="M106.116 9.52481C106.116 12.47 104.633 14.1619 102.043 14.1619C99.7713 14.1619 98.4658 12.8094 98.4658 10.4543V0.496094H94.6016V10.8199C94.6016 15.0548 97.1551 17.7911 101.108 17.7911C103.286 17.7911 105.004 17.0183 106.111 15.5457V17.3629H109.975V0.496094H106.111V9.52481H106.116Z" fill="#0050FF"/>
<path d="M134.068 12.8355L129.52 0.496094H125.301L131.88 17.3629H136.22L142.794 0.496094H138.58L134.068 12.8355Z" fill="#0050FF"/>
<path d="M53.3692 12.0522C52.6329 13.1384 51.4266 13.906 49.9175 14.1462C47.2961 14.564 45.2021 13.5196 44.2778 11.3577L57.2804 9.30025C57.2804 9.30025 57.2386 8.16187 57.1551 7.66578C56.7791 5.30025 55.6094 3.23236 53.8548 1.84333C52.048 0.412519 49.7556 -0.172337 47.4005 0.19842C42.3091 1.00782 39.1968 5.27414 40.001 10.3446C40.3874 12.7937 41.5989 14.8982 43.4632 16.2036C45.5833 17.6867 47.8809 18 50.4397 17.6658C53.7347 17.2376 55.5833 15.2428 56.3509 14.2141L53.3692 12.0522ZM47.9227 3.69712C49.7556 3.40469 52.0428 4.05743 53.035 6.73628L43.7399 8.20887C43.907 5.765 45.4579 4.08354 47.9227 3.69712Z" fill="#0050FF"/>
<path d="M156.287 12.0522C155.551 13.1384 154.345 13.906 152.835 14.1462C150.214 14.564 148.12 13.5196 147.196 11.3577L160.198 9.30025C160.198 9.30025 160.157 8.16187 160.073 7.66578C159.697 5.30025 158.527 3.23236 156.773 1.84333C154.966 0.412519 152.674 -0.172337 150.318 0.19842C145.227 1.00782 142.115 5.27414 142.919 10.3446C143.305 12.7937 144.517 14.8982 146.381 16.2036C148.501 17.6867 150.799 18 153.358 17.6658C156.653 17.2376 158.501 15.2428 159.269 14.2141L156.287 12.0522ZM150.841 3.69712C152.674 3.40469 154.961 4.05743 155.953 6.73628L146.658 8.20887C146.825 5.765 148.376 4.08354 150.841 3.69712Z" fill="#0050FF"/>
<path d="M163.43 23.9791H167.634L177.806 0.496094H173.665L169.017 11.7546L164.459 0.496094H160.312L166.61 16.6371L163.43 23.9791Z" fill="#0050FF"/>
</svg>
