<svg width="64" height="64" viewBox="0 0 64 64" fill="none" xmlns="http://www.w3.org/2000/svg">
<rect width="64" height="64" fill="white"/>
<path d="M32 35.1C37.1363 35.1 41.3 30.9362 41.3 25.8C41.3 20.6638 37.1363 16.5 32 16.5C26.8638 16.5 22.7 20.6638 22.7 25.8C22.7 30.9362 26.8638 35.1 32 35.1Z" fill="#005CFF"/>
<path d="M32 63C49.112 63 63 49.112 63 32C63 14.888 49.112 1 32 1C14.888 1 1 14.888 1 32C1 49.112 14.888 63 32 63ZM32 7.2C45.702 7.2 56.8 18.298 56.8 32C56.8 37.022 55.312 41.703 52.739 45.578C47.345 39.316 39.688 38.2 32 38.2C24.312 38.2 16.655 39.316 11.261 45.609C8.688 41.703 7.2 37.022 7.2 32C7.2 18.298 18.298 7.2 32 7.2Z" fill="#005CFF"/>
</svg>
